<svg xmlns="http://www.w3.org/2000/svg" viewBox="0 0 200 240" width="200" height="240">
  <defs>
    <linearGradient id="mapGrad" x1="0" y1="0" x2="1" y2="1">
      <stop offset="0%" stop-color="#1a73e8"/>
      <stop offset="100%" stop-color="#0d47a1"/>
    </linearGradient>
    <linearGradient id="plusGrad" x1="0" y1="0" x2="0" y2="1">
      <stop offset="0%" stop-color="#ffffff"/>
      <stop offset="100%" stop-color="#e3f2fd"/>
    </linearGradient>
  </defs>

  <!-- India map shape (simplified silhouette) -->
  <path d="
    M 100 8
    L 118 12
    L 135 10
    L 150 18
    L 158 30
    L 165 28
    L 170 35
    L 168 45
    L 175 52
    L 172 62
    L 165 68
    L 168 78
    L 162 88
    L 158 100
    L 162 110
    L 158 122
    L 150 132
    L 148 145
    L 142 155
    L 135 165
    L 125 178
    L 118 190
    L 112 200
    L 108 210
    L 104 218
    L 100 224
    L 96 218
    L 92 210
    L 88 200
    L 82 190
    L 74 178
    L 65 165
    L 58 155
    L 52 145
    L 50 132
    L 42 122
    L 38 110
    L 42 100
    L 38 88
    L 32 78
    L 35 68
    L 28 62
    L 25 52
    L 32 45
    L 30 35
    L 35 28
    L 42 30
    L 50 18
    L 65 10
    L 82 12
    Z
  " fill="url(#mapGrad)" opacity="0.92"/>

  <!-- Sri Lanka (small island below) -->
  <ellipse cx="122" cy="210" rx="7" ry="10" fill="url(#mapGrad)" opacity="0.85"/>

  <!-- Plus sign (medical cross) centered on map -->
  <rect x="85" y="100" width="30" height="10" rx="5" fill="url(#plusGrad)"/>
  <rect x="95" y="90" width="10" height="30" rx="5" fill="url(#plusGrad)"/>

  <!-- Text: BharatHealth -->
  <text x="100" y="238" text-anchor="middle" font-family="Georgia, serif" font-size="13" font-weight="700" fill="#1a73e8" letter-spacing="0.5">BharatHealth</text>
</svg>
